# xmcd CD database file
#
# Track frame offsets:
#	150
#	12060
#	22640
#	32683
#	45943
#	56978
#	69755
#	82343
#	93933
#	105735
#	118870
#	131895
#	144483
#	157833
#	168853
#
# Disc length: 2423 seconds
#
# Revision: 0
# Processed by: cddbd v1.4PL0 Copyright (c) Steve Scherf et al.
# Submitted via: CDex 1.50beta8
#
DISCID=b609750f
DTITLE=The Mills Brothers - The Glow-Worm
DYEAR=1900
DGENRE=Jazz
TTITLE0=The Glow-Worm
TTITLE1=You're nobody till somebody loves you
TTITLE2=Opus one
TTITLE3=If I had my way
TTITLE4=The window washer man
TTITLE5=Dream of you
TTITLE6=Say si si
TTITLE7=Paper doll
TTITLE8=Basin street blues
TTITLE9=The Jones boy
TTITLE10=Gloria
TTITLE11=I yi yi yi amigo
TTITLE12=Queen of the senior prom
TTITLE13=Across the alley from the Alamo
TTITLE14=Smack dab in the middle
EXTD=
EXTT0=
EXTT1=
EXTT2=
EXTT3=
EXTT4=
EXTT5=
EXTT6=
EXTT7=
EXTT8=
EXTT9=
EXTT10=
EXTT11=
EXTT12=
EXTT13=
EXTT14=
PLAYORDER=
